<svg xmlns="http://www.w3.org/2000/svg" xmlns:xlink="http://www.w3.org/1999/xlink" version="1.1" style="enable-background:new 25 25 25 22.59;" xml:space="preserve" width="25" height="22.59"><rect id="backgroundrect" width="100%" height="100%" x="0" y="0" fill="none" stroke="none" class="" style=""/>

<g class="currentLayer" style=""><title>Layer 1</title><g id="menu-button-of-three-horizontal-lines" class="" fill="#ffffff" fill-opacity="1">
	<g id="svg_1" fill="#ffffff" fill-opacity="1">
		<path id="Path_1-2" d="M22.58,0 H2.42 C1.1400000000000006,-0.050000000000000044 0.0600000000000005,0.94 0,2.22 c0.06000000000000002,1.28 1.1400000000000001,2.26 2.42,2.21 h20.16 c1.28,0.05000000000000002 2.36,-0.9400000000000002 2.42,-2.21 C24.939999999999998,0.94 23.86,-0.050000000000000044 22.58,0 z" stroke-width="0" fill="#ffffff" fill-opacity="1"/>
	</g>
	<g id="svg_2" fill="#ffffff" fill-opacity="1">
		<path id="Path_2-2" d="M22.58,9.08 H2.42 c-1.22,-0.11000000000000003 -2.3,0.8 -2.41,2.02 c-0.11000000000000003,1.22 0.8,2.3 2.02,2.41 c0.13,0.010000000000000004 0.26,0.010000000000000004 0.3900000000000001,0 h20.16 c1.22,0.11000000000000003 2.3,-0.8 2.41,-2.02 c0.11000000000000003,-1.22 -0.8,-2.3 -2.02,-2.41 C22.84,9.07 22.71,9.07 22.58,9.08 z" stroke-width="0" fill="#ffffff" fill-opacity="1"/>
	</g>
	<g id="svg_3" fill="#ffffff" fill-opacity="1">
		<path id="Path_3-2" d="M22.58,18.15 H2.42 c-1.22,-0.11000000000000003 -2.3,0.8 -2.41,2.02 c-0.11000000000000003,1.22 0.8,2.3 2.02,2.41 c0.13,0.010000000000000004 0.26,0.010000000000000004 0.3900000000000001,0 h20.16 c1.22,0.11000000000000003 2.3,-0.8 2.41,-2.02 c0.11000000000000003,-1.22 -0.8,-2.3 -2.02,-2.41 C22.84,18.14 22.71,18.14 22.58,18.15 z" stroke-width="0" fill="#ffffff" fill-opacity="1"/>
	</g>
</g></g></svg>