<?xml version="1.0" encoding="utf-8"?>
<!-- Generator: Adobe Illustrator 25.1.0, SVG Export Plug-In . SVG Version: 6.00 Build 0)  -->
<svg version="1.1" id="Layer_1" xmlns="http://www.w3.org/2000/svg" xmlns:xlink="http://www.w3.org/1999/xlink" x="0px" y="0px"
	 viewBox="0 0 25 22.59" style="enable-background:new 0 0 25 22.59;" xml:space="preserve">
<g id="menu-button-of-three-horizontal-lines" transform="translate(7.5 1.5)">
	<g transform="matrix(1, 0, 0, 1, -7.5, -1.5)">
		<path id="Path_1-2" d="M22.58,0H2.42C1.14-0.05,0.06,0.94,0,2.22c0.06,1.28,1.14,2.26,2.42,2.21h20.16
			c1.28,0.05,2.36-0.94,2.42-2.21C24.94,0.94,23.86-0.05,22.58,0z"/>
	</g>
	<g transform="matrix(1, 0, 0, 1, -7.5, -1.5)">
		<path id="Path_2-2" d="M22.58,9.08H2.42c-1.22-0.11-2.3,0.8-2.41,2.02c-0.11,1.22,0.8,2.3,2.02,2.41c0.13,0.01,0.26,0.01,0.39,0
			h20.16c1.22,0.11,2.3-0.8,2.41-2.02c0.11-1.22-0.8-2.3-2.02-2.41C22.84,9.07,22.71,9.07,22.58,9.08z"/>
	</g>
	<g transform="matrix(1, 0, 0, 1, -7.5, -1.5)">
		<path id="Path_3-2" d="M22.58,18.15H2.42c-1.22-0.11-2.3,0.8-2.41,2.02c-0.11,1.22,0.8,2.3,2.02,2.41c0.13,0.01,0.26,0.01,0.39,0
			h20.16c1.22,0.11,2.3-0.8,2.41-2.02c0.11-1.22-0.8-2.3-2.02-2.41C22.84,18.14,22.71,18.14,22.58,18.15z"/>
	</g>
</g>
</svg>
